<svg width="48" height="39" viewBox="0 0 48 39" fill="none" xmlns="http://www.w3.org/2000/svg">
<g clip-path="url(#clip0_54696_25207)">
<path d="M33.25 23.2V13.4875C33.25 11.6964 31.8036 10.25 30.0125 10.25H17.9875C16.1964 10.25 14.75 11.6964 14.75 13.4875V25.5125C14.75 27.3036 16.1964 28.75 17.9875 28.75H27.7L33.25 23.2ZM17.9875 26.9C17.2223 26.9 16.6 26.2777 16.6 25.5125V13.4875C16.6 12.7223 17.2223 12.1 17.9875 12.1H30.0125C30.7777 12.1 31.4 12.7223 31.4 13.4875V22.275H30.0125C28.2214 22.275 26.775 23.7214 26.775 25.5125V26.9H17.9875ZM21.9314 17.4482C21.6875 16.5905 20.7961 16.0859 19.9384 16.3298C19.0807 16.5736 18.5761 17.465 18.82 18.3311C18.8873 18.5666 19.005 18.7768 19.1564 18.9534L21.965 18.163C22.007 17.9275 21.9986 17.6836 21.9314 17.4482ZM27.7168 15.8168C27.4814 14.9591 26.5816 14.4545 25.7239 14.6984C24.8661 14.9423 24.3616 15.8336 24.6055 16.6998C24.6727 16.9352 24.7905 17.1455 24.9418 17.322L27.7505 16.5316C27.7925 16.2961 27.7841 16.0523 27.7168 15.8168ZM28.5409 18.7095L19.6273 21.2239C20.8298 22.8132 22.9152 23.5868 24.9418 23.015C26.9684 22.4432 28.3391 20.6857 28.5409 18.7095Z" fill="#52443B"/>
</g>
<defs>
<clipPath id="clip0_54696_25207">
<rect x="4" y="-0.5" width="40" height="40" rx="20" fill="white"/>
</clipPath>
</defs>
</svg>
